<svg width="25" height="25" viewBox="0 0 25 25" fill="none" xmlns="http://www.w3.org/2000/svg">
    <path d="M5.5 20.75C5.5 21.2804 5.71071 21.7891 6.08579 22.1642C6.46086 22.5393 6.96957 22.75 7.5 22.75H17.5C18.0304 22.75 18.5391 22.5393 18.9142 22.1642C19.2893 21.7891 19.5 21.2804 19.5 20.75V8.75H21.5V6.75H17.5V4.75C17.5 4.21957 17.2893 3.71086 16.9142 3.33579C16.5391 2.96071 16.0304 2.75 15.5 2.75H9.5C8.96957 2.75 8.46086 2.96071 8.08579 3.33579C7.71071 3.71086 7.5 4.21957 7.5 4.75V6.75H3.5V8.75H5.5V20.75ZM9.5 4.75H15.5V6.75H9.5V4.75ZM8.5 8.75H17.5V20.75H7.5V8.75H8.5Z"
          fill="#FF7B7B"/>
    <path d="M9.5 10.75H11.5V18.75H9.5V10.75ZM13.5 10.75H15.5V18.75H13.5V10.75Z" fill="#FF7B7B"/>
</svg>
